<?xml version="1.0" encoding="UTF-8"?><svg width="35px" height="35px" viewBox="0 0 24 24" stroke-width="1.03" fill="none" xmlns="http://www.w3.org/2000/svg" color="#000000"><path d="M6 6h8M6 10h12M13 14h5M13 18h5M2 21.4V2.6a.6.6 0 01.6-.6h15.652a.6.6 0 01.424.176l3.148 3.148A.6.6 0 0122 5.75V21.4a.6.6 0 01-.6.6H2.6a.6.6 0 01-.6-.6z" stroke="#000000" stroke-width="1.03" stroke-linecap="round" stroke-linejoin="round"></path><path d="M6 18v-4h3v4H6zM18 2v3.4a.6.6 0 00.6.6H22" stroke="#000000" stroke-width="1.03" stroke-linecap="round" stroke-linejoin="round"></path></svg>