<?xml version="1.0" ?><svg enable-background="new 0 0 64 64" height="64px" version="1.1" viewBox="0 0 64 64" width="64px" xml:space="preserve" xmlns="http://www.w3.org/2000/svg" xmlns:xlink="http://www.w3.org/1999/xlink"><g id="_x31_-Call"/><g id="_x32_-24_Hours_Call"/><g id="_x33_-Sending_Call"/><g id="_x34_-Incoming_Call"/><g id="_x35_-Talk_On_Phone"/><g id="_x36_-Block_Call"/><g id="_x37_-Hold_Call"/><g id="_x38_-Mute_Call"/><g id="_x39_-Phone_Book"/><g id="_x31_0-Add_Contact"/><g id="_x31_1-Delete_Contact"/><g id="_x31_2-Mail"/><g id="_x31_3-Message_Read"/><g id="_x31_4-Email"/><g id="_x31_5-Send_Mail"/><g id="_x31_6-Important_Mail"/><g id="_x31_7-Mail_Chain"/><g id="_x31_8-Messaging"/><g id="_x31_9-Sending"/><g id="_x32_0-Chat"/><g id="_x32_1-Mail_Attachment"/><g id="_x32_2-Mobile_Link"/><g id="_x32_3-Smartphone"/><g id="_x32_4-Social_Media"/><g id="_x32_5-Support"><g><path d="M38.9664307,34.6623535C37.0564575,36.3705444,34.635437,37.3989868,32,37.3989868    s-5.0564575-1.0284424-6.9664307-2.7366333C17.4352417,37.4698486,12,44.7039795,12,53.1900024c0,0.5527344,0.4472656,1,1,1h38    c0.5527344,0,1-0.4472656,1-1C52,44.7039795,46.5647583,37.4698486,38.9664307,34.6623535z"/><path d="M41.1188965,24.4719849C40.87323,18.9876099,36.8832397,14.6079712,32,14.6079712s-8.87323,4.3796387-9.1188965,9.8640137    c0.0085449,0.0015869,0.0166016-0.0015869,0.0251465,0.0002441c0.4160156,0.0898438,0.8720703,0.1352539,1.3574219,0.1352539    c2.7568359,0,5.3242188-1.6020508,6.8701172-4.2856445c0.3554688-0.6201172,1.3769531-0.6201172,1.7324219,0    c1.5458984,2.6835938,4.1132813,4.2856445,6.8701172,4.2856445c0.4853516,0,0.9414063-0.0454102,1.3574219-0.1352539    C41.1022949,24.470459,41.1103516,24.4735718,41.1188965,24.4719849z"/><path d="M32,22.6196899c-1.9375,2.5214844-4.7392578,3.987793-7.7363281,3.987793    c-0.4526978,0-0.8830566-0.0426025-1.3000488-0.1051636c0.642395,5.0224609,4.4440918,8.8966675,9.036377,8.8966675    s8.3939819-3.8742065,9.036377-8.8966675c-0.4169922,0.062561-0.8473511,0.1051636-1.3000488,0.1051636    C36.7392578,26.6074829,33.9375,25.1411743,32,22.6196899z"/><path d="M22.0700073,31.1400146h0.2600098C21.3900146,29.3300171,20.8599854,27.2299805,20.8599854,25    c0-1.2399902,0.1700439-2.4299927,0.4700317-3.5599976l0.0100098-0.0100098    c0.1499634-0.5800171,0.3399658-1.1300049,0.5699463-1.6699829C23.6500244,14.9500122,27.5599976,11.8099976,32,11.8099976    s8.3499756,3.1400146,10.0900269,7.9500122c0.2299805,0.539978,0.4199829,1.0899658,0.5699463,1.6699829l0.0100098,0.0100098    C42.9699707,22.5700073,43.1400146,23.7600098,43.1400146,25c0,2.2299805-0.5300293,4.3300171-1.4700317,6.1400146h0.2600098    c2.8500366,0,5.2200317-2.0700073,5.6699829-4.7700195c0.4500122,0.0800171,0.8300171,0.2600098,1.0599976,0.5100098    C48.7700195,27,49.0900269,27.3599854,48.7700195,28.25c-0.9100342,2.6199951-3.8400269,4.0100098-6.0700073,4.3900146    C42.1599731,32.7399902,41.789978,33.25,41.8900146,33.7999878c0.0799561,0.4799805,0.5100098,0.8300171,0.9799805,0.8300171    c0.0599976,0,0.1199951-0.0100098,0.1799927-0.0200195c2.8900146-0.5,6.4100342-2.2600098,7.6099854-5.7000122    c0.460022-1.2999878,0.2700195-2.5-0.5199585-3.3699951c-0.6099854-0.6699829-1.5300293-1.0800171-2.5700073-1.1900024    C47.3599854,23.25,46.8200073,22.2299805,46,21.3900146c-0.4899902-0.4700317-1.0499878-0.8500366-1.6500244-1.1200562    C42.5900269,14,37.6500244,9.8099976,32,9.8099976c-5.6599731,0-10.5900269,4.2000122-12.3499756,10.4699707    c-0.6100464,0.2700195-1.1700439,0.6500244-1.6700439,1.1300049C16.9099731,22.5,16.3200073,23.9299927,16.3200073,25.4500122    C16.3200073,28.5899658,18.9000244,31.1400146,22.0700073,31.1400146z"/></g></g><g id="_x32_6-Links"/><g id="_x32_7-Phone"/><g id="_x32_8-Phone-2"/><g id="_x32_9-Map"/><g id="_x33_0-Location"/><g id="_x33_1-Write"/><g id="_x33_2-World"/><g id="_x33_3-Home"/><g id="_x33_4-Calendar"/><g id="_x33_5-Website"/><g id="_x33_6-Info"/><g id="_x33_7-Bull_Horn"/><g id="_x33_8-Profile"/><g id="_x33_9-Quote__x26__Answer"/><g id="_x34_0-Notification"/><g id="_x34_1-Share"/><g id="_x34_2-Time"/></svg>